<?xml version="1.0" encoding="utf-8"?>
<!-- Generator: Adobe Illustrator 17.0.0, SVG Export Plug-In . SVG Version: 6.00 Build 0)  -->
<!DOCTYPE svg PUBLIC "-//W3C//DTD SVG 1.1//EN" "http://www.w3.org/Graphics/SVG/1.1/DTD/svg11.dtd">
<svg version="1.1" id="Laag_1" xmlns="http://www.w3.org/2000/svg" xmlns:xlink="http://www.w3.org/1999/xlink" x="0px" y="0px"
	 width="130px" height="110px" viewBox="0 0 130 110" enable-background="new 0 0 130 110" xml:space="preserve">
<g id="Nieuw_symbool">
</g>
<g id="Nieuw_symbool_1_">
</g>
<g>
	<polygon fill="#F9F6E7" points="92.192,70.304 41.669,41.029 59.732,30.259 110.255,59.534 	"/>
	<polygon fill="#DBD7C6" points="48.113,37.3 52.289,34.905 102.603,64.096 92.192,70.304 92.192,70.304 92.184,62.836 	"/>
	<g>
		<linearGradient id="SVGID_1_" gradientUnits="userSpaceOnUse" x1="88.6623" y1="64.6544" x2="95.336" y2="64.6544">
			<stop  offset="0" style="stop-color:#F9F6E7"/>
			<stop  offset="1" style="stop-color:#B19C92"/>
		</linearGradient>
		<path fill="url(#SVGID_1_)" d="M95.31,64.485c0.123-0.571-0.196-1.169-0.958-1.61c-1.307-0.755-3.42-0.759-4.72-0.009
			c-0.652,0.377-0.975,0.872-0.97,1.367h0v0.841h0c0.005,0.491,0.334,0.982,0.985,1.358c1.307,0.755,3.42,0.759,4.72,0.008
			c0.752-0.434,1.066-1.026,0.944-1.594V64.485z"/>
		<path fill="#F9F6E7" d="M94.367,65.601c-1.299,0.75-3.412,0.746-4.72-0.009c-1.307-0.755-1.314-1.975-0.015-2.725
			c1.299-0.75,3.412-0.746,4.72,0.009C95.659,63.631,95.666,64.85,94.367,65.601z"/>
		<linearGradient id="SVGID_2_" gradientUnits="userSpaceOnUse" x1="89.4739" y1="56.6431" x2="94.5241" y2="56.6431">
			<stop  offset="0" style="stop-color:#F9F6E7"/>
			<stop  offset="1" style="stop-color:#B19C92"/>
		</linearGradient>
		<path fill="url(#SVGID_2_)" d="M94.524,49.065c0.002-0.376-0.246-0.753-0.745-1.04c-0.989-0.571-2.588-0.574-3.571-0.006
			c-0.494,0.285-0.738,0.66-0.734,1.034h-0.001v15.182h0c0.004,0.372,0.252,0.743,0.745,1.028c0.989,0.571,2.588,0.574,3.571,0.006
			c0.494-0.285,0.738-0.659,0.734-1.034h0V49.065z"/>
		<path fill="#F9F6E7" d="M93.791,50.087c-0.983,0.568-2.582,0.565-3.571-0.006s-0.994-1.494-0.011-2.062
			c0.983-0.568,2.582-0.565,3.571,0.006C94.769,48.596,94.774,49.519,93.791,50.087z"/>
		
			<linearGradient id="SVGID_3_" gradientUnits="userSpaceOnUse" x1="671.9232" y1="-4.0725" x2="674.4073" y2="-6.2239" gradientTransform="matrix(0.866 0.5 -1 0.5774 -496.1269 -284.5579)">
			<stop  offset="0" style="stop-color:#E5DBD1"/>
			<stop  offset="1" style="stop-color:#656458"/>
		</linearGradient>
		<path fill="url(#SVGID_3_)" d="M93.509,49.924c-0.828,0.478-2.176,0.476-3.009-0.005c-0.834-0.481-0.838-1.259-0.009-1.737
			c0.828-0.478,2.176-0.476,3.009,0.005C94.333,48.668,94.337,49.446,93.509,49.924z"/>
	</g>
	<g>
		<linearGradient id="SVGID_4_" gradientUnits="userSpaceOnUse" x1="59.7208" y1="48.0293" x2="66.3945" y2="48.0293">
			<stop  offset="0" style="stop-color:#F9F6E7"/>
			<stop  offset="1" style="stop-color:#B19C92"/>
		</linearGradient>
		<path fill="url(#SVGID_4_)" d="M66.369,47.86c0.123-0.571-0.196-1.169-0.958-1.61c-1.307-0.755-3.42-0.759-4.72-0.009
			c-0.652,0.377-0.975,0.872-0.97,1.367h0v0.841h0c0.005,0.491,0.334,0.982,0.985,1.358c1.307,0.755,3.42,0.759,4.72,0.009
			c0.752-0.434,1.066-1.026,0.944-1.594V47.86z"/>
		<path fill="#F9F6E7" d="M65.425,48.976c-1.299,0.75-3.412,0.746-4.72-0.009c-1.307-0.755-1.314-1.975-0.015-2.725
			s3.412-0.746,4.72,0.009C66.718,47.005,66.724,48.225,65.425,48.976z"/>
		<linearGradient id="SVGID_5_" gradientUnits="userSpaceOnUse" x1="60.5324" y1="40.018" x2="65.5826" y2="40.018">
			<stop  offset="0" style="stop-color:#F9F6E7"/>
			<stop  offset="1" style="stop-color:#B19C92"/>
		</linearGradient>
		<path fill="url(#SVGID_5_)" d="M65.583,32.44c0.002-0.376-0.246-0.753-0.745-1.04c-0.989-0.571-2.588-0.574-3.571-0.006
			c-0.494,0.285-0.738,0.66-0.734,1.034h-0.001v15.182h0c0.004,0.372,0.252,0.743,0.745,1.028c0.989,0.571,2.588,0.574,3.571,0.006
			c0.494-0.285,0.738-0.659,0.734-1.034h0V32.44z"/>
		<path fill="#F9F6E7" d="M64.849,33.461c-0.983,0.568-2.582,0.565-3.571-0.006c-0.989-0.571-0.994-1.494-0.011-2.062
			c0.983-0.568,2.582-0.565,3.571,0.006C65.827,31.971,65.832,32.894,64.849,33.461z"/>
		
			<linearGradient id="SVGID_6_" gradientUnits="userSpaceOnUse" x1="638.5888" y1="-3.9995" x2="641.0729" y2="-6.1508" gradientTransform="matrix(0.866 0.5 -1 0.5774 -496.1269 -284.5579)">
			<stop  offset="0" style="stop-color:#E5DBD1"/>
			<stop  offset="1" style="stop-color:#656458"/>
		</linearGradient>
		<path fill="url(#SVGID_6_)" d="M64.567,33.299c-0.828,0.478-2.176,0.476-3.009-0.005c-0.834-0.481-0.838-1.259-0.009-1.737
			c0.828-0.478,2.176-0.476,3.009,0.005C65.391,32.043,65.396,32.82,64.567,33.299z"/>
	</g>
	<g>
		<linearGradient id="SVGID_7_" gradientUnits="userSpaceOnUse" x1="74.1915" y1="56.3419" x2="80.8652" y2="56.3419">
			<stop  offset="0" style="stop-color:#F9F6E7"/>
			<stop  offset="1" style="stop-color:#B19C92"/>
		</linearGradient>
		<path fill="url(#SVGID_7_)" d="M80.839,56.173c0.123-0.571-0.196-1.169-0.958-1.61c-1.307-0.755-3.42-0.759-4.72-0.009
			c-0.652,0.377-0.975,0.872-0.97,1.367h0v0.841h0c0.005,0.491,0.334,0.982,0.985,1.358c1.307,0.755,3.42,0.759,4.72,0.009
			c0.752-0.434,1.066-1.026,0.944-1.594V56.173z"/>
		<path fill="#F9F6E7" d="M79.896,57.288c-1.299,0.75-3.412,0.746-4.72-0.009c-1.307-0.755-1.314-1.975-0.015-2.725
			s3.412-0.746,4.72,0.009C81.189,55.318,81.195,56.538,79.896,57.288z"/>
		<linearGradient id="SVGID_8_" gradientUnits="userSpaceOnUse" x1="75.0032" y1="48.3306" x2="80.0534" y2="48.3306">
			<stop  offset="0" style="stop-color:#F9F6E7"/>
			<stop  offset="1" style="stop-color:#B19C92"/>
		</linearGradient>
		<path fill="url(#SVGID_8_)" d="M80.053,40.753c0.002-0.376-0.246-0.753-0.745-1.04c-0.989-0.571-2.588-0.574-3.571-0.006
			c-0.494,0.285-0.738,0.66-0.734,1.034h-0.001v15.182h0c0.004,0.372,0.252,0.743,0.745,1.028c0.989,0.571,2.588,0.574,3.571,0.006
			c0.494-0.285,0.738-0.659,0.734-1.034h0V40.753z"/>
		<path fill="#F9F6E7" d="M79.32,41.774c-0.983,0.568-2.582,0.565-3.571-0.006s-0.994-1.494-0.011-2.062
			c0.983-0.568,2.582-0.565,3.571,0.006C80.298,40.283,80.303,41.206,79.32,41.774z"/>
		
			<linearGradient id="SVGID_9_" gradientUnits="userSpaceOnUse" x1="655.256" y1="-4.036" x2="657.7402" y2="-6.1874" gradientTransform="matrix(0.866 0.5 -1 0.5774 -496.1269 -284.5579)">
			<stop  offset="0" style="stop-color:#E5DBD1"/>
			<stop  offset="1" style="stop-color:#656458"/>
		</linearGradient>
		<path fill="url(#SVGID_9_)" d="M79.038,41.611c-0.828,0.478-2.176,0.476-3.009-0.005c-0.834-0.481-0.838-1.259-0.009-1.737
			c0.828-0.478,2.176-0.476,3.009,0.005C79.862,40.355,79.866,41.133,79.038,41.611z"/>
	</g>
	<g>
		<linearGradient id="SVGID_10_" gradientUnits="userSpaceOnUse" x1="8.4455" y1="67.3857" x2="20.4757" y2="67.3857">
			<stop  offset="0" style="stop-color:#F9F6E7"/>
			<stop  offset="1" style="stop-color:#B19C92"/>
		</linearGradient>
		<path fill="url(#SVGID_10_)" d="M20.429,67.081c0.222-1.029-0.353-2.108-1.727-2.901c-2.357-1.361-6.166-1.368-8.508-0.015
			c-1.176,0.679-1.758,1.571-1.748,2.464H8.445v1.516h0.001c0.01,0.885,0.601,1.771,1.775,2.448
			c2.357,1.361,6.166,1.368,8.508,0.015c1.356-0.783,1.921-1.849,1.701-2.873V67.081z"/>
		<path fill="#F9F6E7" d="M18.728,69.091c-2.342,1.352-6.151,1.345-8.508-0.015c-2.357-1.361-2.369-3.56-0.027-4.912
			c2.342-1.352,6.151-1.345,8.508,0.015C21.059,65.54,21.07,67.739,18.728,69.091z"/>
		<linearGradient id="SVGID_11_" gradientUnits="userSpaceOnUse" x1="9.9086" y1="41.4196" x2="19.0122" y2="41.4196">
			<stop  offset="0" style="stop-color:#F9F6E7"/>
			<stop  offset="1" style="stop-color:#B19C92"/>
		</linearGradient>
		<path fill="url(#SVGID_11_)" d="M19.012,16.234c0.003-0.677-0.444-1.357-1.342-1.875c-1.783-1.029-4.665-1.035-6.438-0.012
			c-0.89,0.514-1.33,1.189-1.322,1.864H9.909v50.416h0.001c0.007,0.67,0.455,1.34,1.343,1.852c1.783,1.029,4.665,1.035,6.437,0.012
			c0.89-0.514,1.33-1.189,1.322-1.864h0V16.234z"/>
		<path fill="#F9F6E7" d="M17.69,18.076c-1.772,1.023-4.654,1.018-6.438-0.012s-1.792-2.694-0.02-3.717s4.654-1.018,6.438,0.012
			S19.462,17.053,17.69,18.076z"/>
		
			<linearGradient id="SVGID_12_" gradientUnits="userSpaceOnUse" x1="593.3188" y1="7.119" x2="597.7968" y2="3.2409" gradientTransform="matrix(0.866 0.5 -1 0.5774 -496.1269 -284.5579)">
			<stop  offset="0" style="stop-color:#E5DBD1"/>
			<stop  offset="1" style="stop-color:#656458"/>
		</linearGradient>
		<path fill="url(#SVGID_12_)" d="M17.182,17.782c-1.493,0.862-3.922,0.858-5.424-0.01s-1.51-2.27-0.017-3.132
			c1.493-0.862,3.922-0.858,5.424,0.01C18.668,15.518,18.675,16.92,17.182,17.782z"/>
	</g>
	<g>
		<linearGradient id="SVGID_13_" gradientUnits="userSpaceOnUse" x1="20.1339" y1="60.6298" x2="32.1642" y2="60.6298">
			<stop  offset="0" style="stop-color:#F9F6E7"/>
			<stop  offset="1" style="stop-color:#B19C92"/>
		</linearGradient>
		<path fill="url(#SVGID_13_)" d="M32.118,60.325c0.222-1.029-0.353-2.108-1.727-2.901c-2.357-1.361-6.166-1.368-8.508-0.015
			c-1.176,0.679-1.758,1.571-1.748,2.464h-0.001v1.516h0.001c0.01,0.885,0.601,1.771,1.775,2.448
			c2.357,1.361,6.166,1.368,8.508,0.015c1.356-0.783,1.921-1.849,1.701-2.873V60.325z"/>
		<path fill="#F9F6E7" d="M30.417,62.335c-2.342,1.352-6.151,1.345-8.508-0.015s-2.369-3.56-0.027-4.912
			c2.342-1.352,6.151-1.345,8.508,0.015S32.759,60.983,30.417,62.335z"/>
		<linearGradient id="SVGID_14_" gradientUnits="userSpaceOnUse" x1="21.597" y1="34.6637" x2="30.7007" y2="34.6637">
			<stop  offset="0" style="stop-color:#F9F6E7"/>
			<stop  offset="1" style="stop-color:#B19C92"/>
		</linearGradient>
		<path fill="url(#SVGID_14_)" d="M30.701,9.478c0.003-0.677-0.444-1.357-1.342-1.875c-1.783-1.029-4.665-1.035-6.438-0.012
			c-0.89,0.514-1.33,1.189-1.322,1.864h-0.001v50.416h0.001c0.007,0.67,0.455,1.34,1.343,1.852c1.783,1.029,4.665,1.035,6.437,0.012
			c0.89-0.514,1.33-1.189,1.322-1.864h0V9.478z"/>
		<path fill="#F9F6E7" d="M29.379,11.32c-1.772,1.023-4.654,1.018-6.438-0.012c-1.783-1.03-1.792-2.694-0.02-3.717
			c1.772-1.023,4.654-1.018,6.438,0.012S31.151,10.297,29.379,11.32z"/>
		
			<linearGradient id="SVGID_15_" gradientUnits="userSpaceOnUse" x1="593.3112" y1="-4.576" x2="597.7892" y2="-8.4541" gradientTransform="matrix(0.866 0.5 -1 0.5774 -496.1269 -284.5579)">
			<stop  offset="0" style="stop-color:#E5DBD1"/>
			<stop  offset="1" style="stop-color:#656458"/>
		</linearGradient>
		<path fill="url(#SVGID_15_)" d="M28.87,11.026c-1.493,0.862-3.922,0.858-5.424-0.01c-1.503-0.867-1.51-2.27-0.017-3.132
			s3.922-0.858,5.424,0.01C30.356,8.762,30.364,10.164,28.87,11.026z"/>
	</g>
	<g>
		<linearGradient id="SVGID_16_" gradientUnits="userSpaceOnUse" x1="31.8223" y1="53.8739" x2="43.8526" y2="53.8739">
			<stop  offset="0" style="stop-color:#F9F6E7"/>
			<stop  offset="1" style="stop-color:#B19C92"/>
		</linearGradient>
		<path fill="url(#SVGID_16_)" d="M43.806,53.569c0.222-1.029-0.353-2.108-1.727-2.901c-2.357-1.361-6.166-1.368-8.508-0.015
			c-1.176,0.679-1.758,1.571-1.748,2.464h-0.001v1.516h0.001c0.01,0.885,0.601,1.771,1.775,2.448
			c2.357,1.361,6.166,1.368,8.508,0.015c1.356-0.783,1.921-1.849,1.701-2.873V53.569z"/>
		<path fill="#F9F6E7" d="M42.105,55.58c-2.342,1.352-6.151,1.345-8.508-0.015c-2.357-1.361-2.369-3.56-0.027-4.912
			c2.342-1.352,6.151-1.345,8.508,0.015C44.435,52.028,44.447,54.227,42.105,55.58z"/>
		<linearGradient id="SVGID_17_" gradientUnits="userSpaceOnUse" x1="33.2854" y1="27.9078" x2="42.3891" y2="27.9078">
			<stop  offset="0" style="stop-color:#F9F6E7"/>
			<stop  offset="1" style="stop-color:#B19C92"/>
		</linearGradient>
		<path fill="url(#SVGID_17_)" d="M42.389,2.723c0.003-0.677-0.444-1.357-1.342-1.875c-1.783-1.029-4.665-1.035-6.438-0.012
			c-0.89,0.514-1.33,1.189-1.322,1.864h-0.001v50.416h0.001c0.007,0.67,0.455,1.34,1.343,1.852c1.783,1.029,4.665,1.035,6.437,0.012
			c0.89-0.514,1.33-1.189,1.322-1.864h0V2.723z"/>
		<path fill="#F9F6E7" d="M41.067,4.564c-1.772,1.023-4.654,1.018-6.438-0.012s-1.792-2.694-0.02-3.717
			c1.772-1.023,4.654-1.018,6.438,0.012S42.839,3.541,41.067,4.564z"/>
		
			<linearGradient id="SVGID_18_" gradientUnits="userSpaceOnUse" x1="593.3036" y1="-16.271" x2="597.7816" y2="-20.1491" gradientTransform="matrix(0.866 0.5 -1 0.5774 -496.1269 -284.5579)">
			<stop  offset="0" style="stop-color:#E5DBD1"/>
			<stop  offset="1" style="stop-color:#656458"/>
		</linearGradient>
		<path fill="url(#SVGID_18_)" d="M40.559,4.271c-1.493,0.862-3.922,0.858-5.424-0.01s-1.51-2.27-0.017-3.132
			c1.493-0.862,3.922-0.858,5.424,0.01S42.052,3.408,40.559,4.271z"/>
	</g>
	<polygon fill="#E7D7C7" points="61.769,104.307 11.246,75.033 11.246,58.594 61.769,87.868 	"/>
	<polygon fill="#F9F6E7" points="61.769,87.868 11.246,58.594 16.837,55.366 67.361,84.64 	"/>
	<polygon fill="#E7D7C7" points="67.361,84.64 16.776,55.471 16.76,48.008 67.345,77.177 	"/>
	<polygon fill="#F9F6E7" points="67.345,77.177 16.821,47.902 41.653,33.566 92.176,62.84 	"/>
	<polygon fill="#FFDE93" points="77.837,62.584 31.285,35.825 20.944,48.008 67.496,74.767 	"/>
	<polygon fill="#DDB272" points="88.178,62.579 41.626,35.82 31.285,35.825 77.837,62.584 	"/>
	<polygon fill="#BFABA7" points="88.178,62.579 67.496,74.767 77.837,62.584 	"/>
	<polygon fill="#BFABA7" points="92.185,70.308 92.176,62.84 67.345,77.177 67.361,84.64 67.361,84.64 61.769,87.869 
		61.769,104.307 110.255,75.973 110.255,59.534 	"/>
	<g>
		<polygon fill="#E7D7C7" points="103.491,93.077 92.192,86.554 92.192,77.17 103.491,83.693 		"/>
		<polygon fill="#F9F6E7" points="103.491,83.693 92.192,77.17 110.255,66.73 121.555,73.254 		"/>
		<polygon fill="#BFABA7" points="121.555,82.638 103.491,93.077 103.491,83.693 121.555,73.254 		"/>
	</g>
	<linearGradient id="SVGID_19_" gradientUnits="userSpaceOnUse" x1="84.554" y1="72.5956" x2="91.8022" y2="68.4109">
		<stop  offset="0" style="stop-color:#9B585B"/>
		<stop  offset="1" style="stop-color:#37312C"/>
	</linearGradient>
	<polygon fill="url(#SVGID_19_)" points="86.041,68.304 90.315,65.836 90.315,72.703 86.041,75.171 	"/>
	<linearGradient id="SVGID_20_" gradientUnits="userSpaceOnUse" x1="87.8962" y1="78.3844" x2="94.6913" y2="74.4612">
		<stop  offset="0" style="stop-color:#9B585B"/>
		<stop  offset="1" style="stop-color:#37312C"/>
	</linearGradient>
	<polygon fill="url(#SVGID_20_)" points="92.272,80.143 96.547,77.675 90.315,72.703 86.041,75.171 	"/>
	<polygon fill="#AFA79A" points="85.376,90.368 89.651,92.836 89.651,95.976 85.376,93.508 	"/>
	<linearGradient id="SVGID_21_" gradientUnits="userSpaceOnUse" x1="85.9946" y1="90.5641" x2="89.0152" y2="95.7958">
		<stop  offset="0" style="stop-color:#9B585B"/>
		<stop  offset="1" style="stop-color:#37312C"/>
	</linearGradient>
	<polygon fill="url(#SVGID_21_)" points="85.601,90.792 89.409,92.99 89.409,95.568 85.601,93.37 	"/>
	<path fill="#A39B8D" d="M96.938,77.945c-0.126-0.104-0.256-0.199-0.391-0.271l-4.275,2.468l4.275,2.468
		c0.93-1.488,1.424-3.487,1.502-4.258l0.018-0.013v-1.163L96.938,77.945z"/>
	<polygon fill="#AFA79A" points="86.041,72.039 86.041,75.171 92.272,80.143 92.272,77.011 	"/>
	<polygon fill="#D3D0C2" points="92.272,77.011 96.547,74.543 90.315,69.571 86.041,72.039 	"/>
	<polygon fill="#D3D0C2" points="89.651,92.836 85.376,90.368 92.272,77.011 96.547,79.479 	"/>
	<path fill="#C1BEB2" d="M96.547,74.543c1.46,0.774,2.524,3.613,0,4.936l-4.275-2.468L96.547,74.543z"/>
	<polygon fill="#A39B8D" points="89.651,95.968 89.651,92.836 96.547,79.479 96.547,82.611 	"/>
	<path fill="#59492E" d="M103.72,94.643c-0.228-0.207-0.599-0.375-0.851-0.585c-0.413-0.345-0.605-0.456-1.128-0.53
		c-0.767-0.109-1.293-0.374-2-0.602c-0.389-0.126-0.67-0.159-1.03-0.396c-0.338-0.222-0.534-0.457-0.969-0.387
		c-0.5,0.08-1.09,0.442-1.578,0.627c-1.033,0.393-1.601,1.03-2.35,1.786c-0.416,0.42-0.984,0.633-1.445,0.967
		c-4.388,0.074-4.963-1.7-5.663-2.177c-0.588-0.401-1.322-0.767-1.865-1.199c-0.536-0.426-1.223-0.409-1.696-0.872
		c-0.423-0.414-0.563-0.737-1.2-0.878c-0.594-0.132-0.953-0.069-1.297-0.612c-0.29-0.458-0.345-0.67-0.789-1.013
		c-0.789-0.609-1.901-0.609-2.616-1.271c-0.414-0.384-0.419-0.968-0.875-1.334c-0.474-0.381-0.91-0.244-1.471-0.144
		c-0.549,0.098-1.157,0.25-1.512,0.735c-0.414,0.564-0.439,1.591-0.651,2.258c-0.39,1.228-0.743,2.199-1.825,2.973
		c-0.652,0.466-1.147,0.708-1.296,1.523c-0.082,0.448-0.12,0.916-0.137,1.366c-0.613,0.069-1.344,0.322-1.488,0.91
		c-0.122,0.496,0.11,1.05-0.074,1.554c-0.168,0.458-0.569,0.9-0.811,1.327c-0.204,0.36-0.713,1.811-1.838,2.374
		s-2.998,2.971-2.998,2.971s0.588,1.17,1.171,2.086c-0.02,0.026-0.034,0.051-0.055,0.078c-0.599,0.741-1.805,1.335-2.138,2.245
		c-0.548,1.498,1.824,0.932,2.655,0.869c1.418-0.107,2.807,0.038,4.2,0.163c1.432,0.591,2.999,0.675,4.499-0.016
		c1.054-0.485,2.235-0.772,3.383-0.949c1.454-0.224,2.958-0.042,4.39-0.323c1.076-0.211,1.884-0.667,2.815-1.188
		c1.447-0.812,2.903-1.545,4.41-2.238c1.988-0.913,3.75-2.08,5.615-3.197c0.649,0.312,1.591-0.204,2.243-0.419
		c0.552-0.183,1.108-0.363,1.654-0.564c1.957-0.721,4.157-1.551,5.633-3.062c0.373-0.381,1.28-0.996,1.478-1.466
		C104.38,95.657,103.987,94.885,103.72,94.643z"/>
</g>
</svg>
