<?xml version="1.0" encoding="utf-8"?>
<!-- Generator: Adobe Illustrator 17.0.0, SVG Export Plug-In . SVG Version: 6.00 Build 0)  -->
<!DOCTYPE svg PUBLIC "-//W3C//DTD SVG 1.1//EN" "http://www.w3.org/Graphics/SVG/1.1/DTD/svg11.dtd">
<svg version="1.1" id="Laag_1" xmlns="http://www.w3.org/2000/svg" xmlns:xlink="http://www.w3.org/1999/xlink" x="0px" y="0px"
	 width="130px" height="110px" viewBox="0 0 130 110" enable-background="new 0 0 130 110" xml:space="preserve">
<g id="Nieuw_symbool">
</g>
<g id="Nieuw_symbool_1_">
</g>
<g>
	<g>
		<linearGradient id="SVGID_1_" gradientUnits="userSpaceOnUse" x1="84.2747" y1="46.7396" x2="102.3598" y2="46.7396">
			<stop  offset="0" style="stop-color:#F9F6E7"/>
			<stop  offset="1" style="stop-color:#B19C92"/>
		</linearGradient>
		<path fill="url(#SVGID_1_)" d="M102.29,38.581c0.334-1.548-0.531-3.169-2.597-4.362c-3.543-2.045-9.269-2.056-12.79-0.023
			c-1.768,1.021-2.643,2.362-2.628,3.704h-0.001V55.58h0.001c0.014,1.331,0.904,2.662,2.668,3.681
			c3.543,2.045,9.269,2.056,12.79,0.023c2.038-1.177,2.888-2.78,2.557-4.318V38.581z"/>
		<path fill="#F9F6E7" d="M99.732,41.603c-3.521,2.033-9.247,2.022-12.79-0.023s-3.561-5.351-0.04-7.384s9.247-2.022,12.79,0.023
			S103.253,39.57,99.732,41.603z"/>
		<path fill="#F9F6E7" d="M99.15,41.267c-3.201,1.848-8.408,1.839-11.629-0.021c-3.221-1.86-3.238-4.866-0.036-6.714
			c3.201-1.848,8.408-1.839,11.629,0.021C102.335,36.413,102.351,39.419,99.15,41.267z"/>
	</g>
	<g>
		<linearGradient id="SVGID_2_" gradientUnits="userSpaceOnUse" x1="102.9663" y1="59.0092" x2="127.287" y2="59.0092">
			<stop  offset="0" style="stop-color:#F9F6E7"/>
			<stop  offset="1" style="stop-color:#B19C92"/>
		</linearGradient>
		<path fill="url(#SVGID_2_)" d="M127.193,55.53c0.449-2.081-0.714-4.262-3.492-5.866c-4.764-2.751-12.465-2.765-17.199-0.031
			c-2.377,1.372-3.554,3.176-3.534,4.981h-0.001v8.791h0.001c0.019,1.79,1.216,3.58,3.588,4.95
			c4.764,2.751,12.465,2.765,17.199,0.031c2.741-1.582,3.883-3.738,3.438-5.807V55.53z"/>
		<path fill="#F9F6E7" d="M123.753,59.594c-4.735,2.734-12.435,2.72-17.199-0.031c-4.764-2.751-4.788-7.197-0.054-9.93
			s12.435-2.72,17.199,0.031C128.464,52.415,128.488,56.861,123.753,59.594z"/>
		<path fill="#F9F6E7" d="M122.97,59.142c-4.305,2.485-11.307,2.473-15.639-0.028s-4.354-6.544-0.049-9.029
			s11.307-2.473,15.639,0.028S127.275,56.657,122.97,59.142z"/>
		<linearGradient id="SVGID_3_" gradientUnits="userSpaceOnUse" x1="104.0654" y1="53.6781" x2="126.1849" y2="53.6781">
			<stop  offset="0" style="stop-color:#FFDE93"/>
			<stop  offset="0.9948" style="stop-color:#DDB272"/>
		</linearGradient>
		<path fill="url(#SVGID_3_)" d="M115.125,46.608c-6.108,0-11.06,3.473-11.06,7.757h0.004c0.018,1.627,1.105,3.255,3.262,4.5
			c4.332,2.501,11.334,2.514,15.639,0.028c2.014-1.163,3.081-2.667,3.202-4.194c0.006-0.107,0.011-0.215,0.012-0.323
			c0-0.004,0-0.008,0-0.012C126.185,50.08,121.233,46.608,115.125,46.608z"/>
	</g>
	<polygon fill="#F9F6E7" points="93.333,70.227 42.81,40.952 60.873,30.182 111.396,59.457 	"/>
	<g>
		<linearGradient id="SVGID_4_" gradientUnits="userSpaceOnUse" x1="9.5865" y1="67.3089" x2="21.6167" y2="67.3089">
			<stop  offset="0" style="stop-color:#F9F6E7"/>
			<stop  offset="1" style="stop-color:#B19C92"/>
		</linearGradient>
		<path fill="url(#SVGID_4_)" d="M21.57,67.004c0.222-1.029-0.353-2.108-1.727-2.901c-2.357-1.361-6.166-1.368-8.508-0.015
			c-1.176,0.679-1.758,1.571-1.748,2.464H9.586v1.516h0.001c0.01,0.885,0.601,1.771,1.775,2.448
			c2.357,1.361,6.166,1.368,8.508,0.015c1.356-0.783,1.921-1.849,1.701-2.873V67.004z"/>
		<path fill="#F9F6E7" d="M19.869,69.015c-2.342,1.352-6.151,1.345-8.508-0.015c-2.357-1.361-2.369-3.56-0.027-4.912
			c2.342-1.352,6.151-1.345,8.508,0.015C22.2,65.463,22.211,67.662,19.869,69.015z"/>
		<linearGradient id="SVGID_5_" gradientUnits="userSpaceOnUse" x1="11.0496" y1="41.3427" x2="20.1532" y2="41.3427">
			<stop  offset="0" style="stop-color:#F9F6E7"/>
			<stop  offset="1" style="stop-color:#B19C92"/>
		</linearGradient>
		<path fill="url(#SVGID_5_)" d="M20.153,16.158c0.003-0.677-0.444-1.357-1.342-1.875c-1.783-1.029-4.665-1.035-6.438-0.012
			c-0.89,0.514-1.33,1.189-1.322,1.864H11.05v50.416h0.001c0.007,0.67,0.455,1.34,1.343,1.852c1.783,1.029,4.665,1.035,6.437,0.012
			c0.89-0.514,1.33-1.189,1.322-1.864h0V16.158z"/>
		<path fill="#F9F6E7" d="M18.831,17.999c-1.772,1.023-4.654,1.018-6.438-0.012s-1.792-2.694-0.02-3.717s4.654-1.018,6.438,0.012
			S20.603,16.976,18.831,17.999z"/>
		
			<linearGradient id="SVGID_6_" gradientUnits="userSpaceOnUse" x1="729.4304" y1="166.8153" x2="733.9084" y2="162.9372" gradientTransform="matrix(0.866 0.5 -1 0.5774 -453.1657 -444.8913)">
			<stop  offset="0" style="stop-color:#E5DBD1"/>
			<stop  offset="1" style="stop-color:#656458"/>
		</linearGradient>
		<path fill="url(#SVGID_6_)" d="M18.323,17.705c-1.493,0.862-3.922,0.858-5.424-0.01c-1.503-0.867-1.51-2.27-0.017-3.132
			c1.493-0.862,3.922-0.858,5.424,0.01C19.808,15.441,19.816,16.843,18.323,17.705z"/>
	</g>
	<g>
		<linearGradient id="SVGID_7_" gradientUnits="userSpaceOnUse" x1="21.2749" y1="60.553" x2="33.3051" y2="60.553">
			<stop  offset="0" style="stop-color:#F9F6E7"/>
			<stop  offset="1" style="stop-color:#B19C92"/>
		</linearGradient>
		<path fill="url(#SVGID_7_)" d="M33.259,60.248c0.222-1.029-0.353-2.108-1.727-2.901c-2.357-1.361-6.166-1.368-8.508-0.015
			c-1.176,0.679-1.758,1.571-1.748,2.464h-0.001v1.516h0.001c0.01,0.885,0.601,1.771,1.775,2.448
			c2.357,1.361,6.166,1.368,8.508,0.015c1.356-0.783,1.921-1.849,1.701-2.873V60.248z"/>
		<path fill="#F9F6E7" d="M31.558,62.259c-2.342,1.352-6.151,1.345-8.508-0.015s-2.369-3.56-0.027-4.912
			c2.342-1.352,6.151-1.345,8.508,0.015C33.888,58.707,33.9,60.906,31.558,62.259z"/>
		<linearGradient id="SVGID_8_" gradientUnits="userSpaceOnUse" x1="22.738" y1="34.5868" x2="31.8416" y2="34.5868">
			<stop  offset="0" style="stop-color:#F9F6E7"/>
			<stop  offset="1" style="stop-color:#B19C92"/>
		</linearGradient>
		<path fill="url(#SVGID_8_)" d="M31.842,9.402c0.003-0.677-0.444-1.357-1.342-1.875c-1.783-1.029-4.665-1.035-6.438-0.012
			c-0.89,0.514-1.33,1.189-1.322,1.864h-0.001v50.416h0.001c0.007,0.67,0.455,1.34,1.343,1.852c1.783,1.029,4.665,1.035,6.437,0.012
			c0.89-0.514,1.33-1.189,1.322-1.864h0V9.402z"/>
		<path fill="#F9F6E7" d="M30.52,11.243c-1.772,1.023-4.654,1.018-6.438-0.012c-1.783-1.03-1.792-2.694-0.02-3.717
			c1.772-1.023,4.654-1.018,6.438,0.012S32.292,10.22,30.52,11.243z"/>
		
			<linearGradient id="SVGID_9_" gradientUnits="userSpaceOnUse" x1="729.4227" y1="155.1203" x2="733.9008" y2="151.2422" gradientTransform="matrix(0.866 0.5 -1 0.5774 -453.1657 -444.8913)">
			<stop  offset="0" style="stop-color:#E5DBD1"/>
			<stop  offset="1" style="stop-color:#656458"/>
		</linearGradient>
		<path fill="url(#SVGID_9_)" d="M30.011,10.95c-1.493,0.862-3.922,0.858-5.424-0.01c-1.503-0.867-1.51-2.27-0.017-3.132
			c1.493-0.862,3.922-0.858,5.424,0.01C31.497,8.685,31.505,10.087,30.011,10.95z"/>
	</g>
	<g>
		<linearGradient id="SVGID_10_" gradientUnits="userSpaceOnUse" x1="32.9633" y1="53.7971" x2="44.9935" y2="53.7971">
			<stop  offset="0" style="stop-color:#F9F6E7"/>
			<stop  offset="1" style="stop-color:#B19C92"/>
		</linearGradient>
		<path fill="url(#SVGID_10_)" d="M44.947,53.492c0.222-1.029-0.353-2.108-1.727-2.901c-2.357-1.361-6.166-1.368-8.508-0.015
			c-1.176,0.679-1.758,1.571-1.748,2.464h-0.001v1.516h0.001c0.01,0.885,0.601,1.771,1.775,2.448
			c2.357,1.361,6.166,1.368,8.508,0.015c1.356-0.783,1.921-1.849,1.701-2.873V53.492z"/>
		<path fill="#F9F6E7" d="M43.246,55.503c-2.342,1.352-6.151,1.345-8.508-0.015s-2.369-3.56-0.027-4.912
			c2.342-1.352,6.151-1.345,8.508,0.015C45.576,51.951,45.588,54.151,43.246,55.503z"/>
		<linearGradient id="SVGID_11_" gradientUnits="userSpaceOnUse" x1="34.4264" y1="27.8309" x2="43.5301" y2="27.8309">
			<stop  offset="0" style="stop-color:#F9F6E7"/>
			<stop  offset="1" style="stop-color:#B19C92"/>
		</linearGradient>
		<path fill="url(#SVGID_11_)" d="M43.53,2.646c0.003-0.677-0.444-1.357-1.342-1.875c-1.783-1.029-4.665-1.035-6.438-0.012
			c-0.89,0.514-1.33,1.189-1.322,1.864h-0.001v50.416h0.001c0.007,0.67,0.455,1.34,1.343,1.852c1.783,1.029,4.665,1.035,6.438,0.012
			c0.89-0.514,1.33-1.189,1.322-1.864h0V2.646z"/>
		<path fill="#F9F6E7" d="M42.208,4.487c-1.772,1.023-4.654,1.018-6.438-0.012s-1.792-2.694-0.02-3.717s4.654-1.018,6.438,0.012
			S43.98,3.464,42.208,4.487z"/>
		
			<linearGradient id="SVGID_12_" gradientUnits="userSpaceOnUse" x1="729.4152" y1="143.4253" x2="733.8932" y2="139.5472" gradientTransform="matrix(0.866 0.5 -1 0.5774 -453.1657 -444.8913)">
			<stop  offset="0" style="stop-color:#E5DBD1"/>
			<stop  offset="1" style="stop-color:#656458"/>
		</linearGradient>
		<path fill="url(#SVGID_12_)" d="M41.7,4.194c-1.493,0.862-3.922,0.858-5.424-0.01c-1.503-0.867-1.51-2.27-0.017-3.132
			s3.922-0.858,5.424,0.01C43.185,1.929,43.193,3.332,41.7,4.194z"/>
	</g>
	<polygon fill="#E7D7C7" points="62.91,104.23 12.387,74.956 12.387,58.517 62.91,87.792 	"/>
	<polygon fill="#F9F6E7" points="62.91,87.792 12.387,58.517 17.978,55.289 68.502,84.563 	"/>
	<polygon fill="#E7D7C7" points="68.502,84.563 17.917,55.394 17.901,47.931 68.486,77.1 	"/>
	<polygon fill="#F9F6E7" points="68.486,77.1 17.962,47.825 42.794,33.489 93.317,62.763 	"/>
	<polygon fill="#FFDE93" points="78.978,62.507 32.426,35.748 22.085,47.931 68.637,74.69 	"/>
	<polygon fill="#DDB272" points="89.319,62.502 42.767,35.743 32.426,35.748 78.978,62.507 	"/>
	<polygon fill="#BFABA7" points="89.319,62.502 68.637,74.69 78.978,62.507 	"/>
	<polygon fill="#BFABA7" points="93.326,70.231 93.317,62.763 68.486,77.1 68.502,84.563 68.502,84.563 62.91,87.792 62.91,104.23 
		111.396,75.896 111.396,59.457 	"/>
	<polygon fill="#DBD7C6" points="49.254,37.223 53.43,34.828 103.744,64.02 93.333,70.227 93.333,70.227 93.325,62.759 	"/>
	<g>
		<linearGradient id="SVGID_13_" gradientUnits="userSpaceOnUse" x1="49.2475" y1="99.7912" x2="60.5834" y2="99.7912">
			<stop  offset="0" style="stop-color:#F9F6E7"/>
			<stop  offset="1" style="stop-color:#B19C92"/>
		</linearGradient>
		<path fill="url(#SVGID_13_)" d="M60.54,94.677c0.209-0.97-0.333-1.986-1.628-2.734c-2.221-1.282-5.81-1.289-8.017-0.015
			c-1.108,0.64-1.656,1.48-1.647,2.321h-0.001v11.082h0.001c0.009,0.834,0.567,1.669,1.672,2.307
			c2.221,1.282,5.81,1.289,8.017,0.014c1.278-0.738,1.81-1.742,1.603-2.707V94.677z"/>
		<path fill="#F9F6E7" d="M58.936,96.571c-2.207,1.274-5.796,1.268-8.017-0.014c-2.221-1.282-2.232-3.354-0.025-4.628
			s5.796-1.268,8.017,0.014C61.132,93.225,61.143,95.297,58.936,96.571z"/>
	</g>
	<g>
		<g>
			<polygon fill="#E7D7C7" points="100.948,90.838 93.333,86.335 93.333,82.447 100.948,86.95 			"/>
			<polygon fill="#F9F6E7" points="100.948,86.95 93.333,82.447 111.396,72.008 119.011,76.511 			"/>
			<polygon fill="#BFABA7" points="119.011,80.399 100.948,90.838 100.948,86.95 119.011,76.511 			"/>
		</g>
		<linearGradient id="SVGID_14_" gradientUnits="userSpaceOnUse" x1="101.4815" y1="66.6512" x2="112.7773" y2="86.2161">
			<stop  offset="0" style="stop-color:#FFDE93"/>
			<stop  offset="0.9948" style="stop-color:#DDB272"/>
		</linearGradient>
		<path fill="url(#SVGID_14_)" d="M121.071,70.767c0-3.677-2.981-6.658-6.657-6.658c-1.208,0-2.337,0.327-3.314,0.889l0.004,0.007
			c-0.13,0.066-0.254,0.143-0.37,0.233l-15.188,8.714c-0.09,0.036-0.178,0.075-0.262,0.122l-0.001-0.001
			c-0.003,0.001-0.005,0.003-0.007,0.005c-0.015,0.009-0.029,0.02-0.044,0.029c-1.982,1.165-3.317,3.312-3.317,5.777
			c0,3.704,3.003,6.706,6.706,6.706c1.185,0,2.297-0.31,3.263-0.85l-0.022-0.04c0.002-0.001,0.005-0.002,0.007-0.003l0.005,0.01
			l15.73-9.026l-0.005-0.009c0.231-0.116,0.441-0.271,0.625-0.463C119.942,75.006,121.071,73.023,121.071,70.767z"/>
	</g>
	<g>
		<g>
			<polygon fill="#E7D7C7" points="22.835,89.898 30.45,85.395 30.45,81.507 22.835,86.01 			"/>
			<polygon fill="#F9F6E7" points="22.835,86.01 30.45,81.507 12.387,71.068 4.772,75.571 			"/>
			<polygon fill="#BFABA7" points="4.772,79.459 22.835,89.898 22.835,86.01 4.772,75.571 			"/>
		</g>
		
			<linearGradient id="SVGID_15_" gradientUnits="userSpaceOnUse" x1="702.0982" y1="83.0988" x2="690.8024" y2="63.5339" gradientTransform="matrix(-1 0 0 1 714.3608 0)">
			<stop  offset="0.0052" style="stop-color:#DDB272"/>
			<stop  offset="1" style="stop-color:#FFDE93"/>
		</linearGradient>
		<path fill="url(#SVGID_15_)" d="M2.712,69.827c0-3.677,2.981-6.658,6.657-6.658c1.208,0,2.337,0.327,3.314,0.889l-0.004,0.007
			c0.13,0.066,0.254,0.143,0.37,0.233l15.188,8.714c0.09,0.036,0.178,0.075,0.262,0.122l0.001-0.001
			c0.003,0.001,0.005,0.003,0.007,0.005c0.015,0.009,0.029,0.02,0.044,0.029c1.982,1.165,3.317,3.312,3.317,5.777
			c0,3.704-3.003,6.706-6.706,6.706c-1.185,0-2.297-0.31-3.263-0.85l0.022-0.04c-0.002-0.001-0.005-0.002-0.007-0.003l-0.005,0.01
			l-15.73-9.026l0.005-0.009c-0.231-0.116-0.441-0.271-0.625-0.463C3.841,74.065,2.712,72.083,2.712,69.827z"/>
	</g>
	<g>
		<g>
			<polygon fill="#E7D7C7" points="81.792,104.551 85.062,102.617 85.062,100.948 81.792,102.882 			"/>
			<polygon fill="#F9F6E7" points="81.792,102.882 85.062,100.948 77.305,96.464 74.034,98.398 			"/>
			<polygon fill="#BFABA7" points="74.034,100.068 81.792,104.551 81.792,102.882 74.034,98.398 			"/>
		</g>
		
			<linearGradient id="SVGID_16_" gradientUnits="userSpaceOnUse" x1="881.3593" y1="101.6312" x2="876.5081" y2="93.2288" gradientTransform="matrix(-1 0 0 1 958.6108 0)">
			<stop  offset="0" style="stop-color:#FFDE93"/>
			<stop  offset="0.9948" style="stop-color:#DDB272"/>
		</linearGradient>
		<path fill="url(#SVGID_16_)" d="M73.15,95.931c0-1.579,1.28-2.859,2.859-2.859c0.519,0,1.004,0.14,1.423,0.382l-0.002,0.003
			c0.056,0.029,0.109,0.061,0.159,0.1l6.523,3.743c0.039,0.016,0.077,0.032,0.112,0.052l0-0.001
			c0.001,0.001,0.002,0.001,0.003,0.002c0.007,0.004,0.012,0.009,0.019,0.013c0.851,0.5,1.425,1.422,1.425,2.481
			c0,1.591-1.29,2.88-2.88,2.88c-0.509,0-0.987-0.133-1.401-0.365l0.01-0.017c-0.001-0.001-0.002-0.001-0.003-0.001l-0.002,0.004
			l-6.756-3.876l0.002-0.004c-0.099-0.05-0.189-0.117-0.268-0.199C73.635,97.752,73.15,96.9,73.15,95.931z"/>
	</g>
	<g>
		<g>
			<polygon fill="#E7D7C7" points="77.194,107.278 80.465,105.344 80.465,103.675 77.194,105.609 			"/>
			<polygon fill="#F9F6E7" points="77.194,105.609 80.465,103.675 72.707,99.191 69.437,101.125 			"/>
			<polygon fill="#BFABA7" points="69.437,102.795 77.194,107.278 77.194,105.609 69.437,101.125 			"/>
		</g>
		
			<linearGradient id="SVGID_17_" gradientUnits="userSpaceOnUse" x1="885.9567" y1="104.3582" x2="881.1055" y2="95.9557" gradientTransform="matrix(-1 0 0 1 958.6108 0)">
			<stop  offset="0" style="stop-color:#FFDE93"/>
			<stop  offset="0.9948" style="stop-color:#DDB272"/>
		</linearGradient>
		<path fill="url(#SVGID_17_)" d="M68.552,98.658c0-1.579,1.28-2.859,2.859-2.859c0.519,0,1.004,0.14,1.423,0.382l-0.002,0.003
			c0.056,0.029,0.109,0.061,0.159,0.1l6.523,3.743c0.039,0.016,0.077,0.032,0.112,0.052l0-0.001
			c0.001,0.001,0.002,0.001,0.003,0.002c0.007,0.004,0.012,0.009,0.019,0.013c0.851,0.5,1.425,1.422,1.425,2.481
			c0,1.591-1.289,2.88-2.88,2.88c-0.509,0-0.987-0.133-1.401-0.365l0.01-0.017c-0.001-0.001-0.002-0.001-0.003-0.001l-0.002,0.004
			l-6.756-3.876l0.002-0.004c-0.099-0.05-0.189-0.117-0.268-0.199C69.037,100.479,68.552,99.627,68.552,98.658z"/>
	</g>
	<g>
		<g>
			<polygon fill="#E7D7C7" points="72.597,110.005 75.867,108.071 75.867,106.402 72.597,108.336 			"/>
			<polygon fill="#F9F6E7" points="72.597,108.336 75.867,106.402 68.11,101.918 64.839,103.852 			"/>
			<polygon fill="#BFABA7" points="64.839,105.522 72.597,110.005 72.597,108.336 64.839,103.852 			"/>
		</g>
		
			<linearGradient id="SVGID_18_" gradientUnits="userSpaceOnUse" x1="890.5542" y1="107.0851" x2="885.7031" y2="98.6826" gradientTransform="matrix(-1 0 0 1 958.6108 0)">
			<stop  offset="0" style="stop-color:#FFDE93"/>
			<stop  offset="0.9948" style="stop-color:#DDB272"/>
		</linearGradient>
		<path fill="url(#SVGID_18_)" d="M63.955,101.385c0-1.579,1.28-2.859,2.859-2.859c0.519,0,1.004,0.14,1.423,0.382l-0.002,0.003
			c0.056,0.029,0.109,0.061,0.159,0.1l6.523,3.743c0.039,0.016,0.077,0.032,0.112,0.052l0-0.001
			c0.001,0.001,0.002,0.001,0.003,0.002c0.007,0.004,0.012,0.009,0.019,0.013c0.851,0.5,1.425,1.422,1.425,2.481
			c0,1.591-1.29,2.88-2.88,2.88c-0.509,0-0.987-0.133-1.401-0.365l0.01-0.017c-0.001-0.001-0.002-0.001-0.003-0.001l-0.002,0.004
			l-6.756-3.876l0.002-0.004c-0.099-0.05-0.189-0.117-0.268-0.199C64.44,103.206,63.955,102.354,63.955,101.385z"/>
	</g>
</g>
</svg>
