<?xml version="1.0" encoding="utf-8"?>
<!-- Generator: Adobe Illustrator 17.0.0, SVG Export Plug-In . SVG Version: 6.00 Build 0)  -->
<!DOCTYPE svg PUBLIC "-//W3C//DTD SVG 1.1//EN" "http://www.w3.org/Graphics/SVG/1.1/DTD/svg11.dtd">
<svg version="1.1" id="Laag_1" xmlns="http://www.w3.org/2000/svg" xmlns:xlink="http://www.w3.org/1999/xlink" x="0px" y="0px"
	 width="130px" height="110px" viewBox="0 0 130 110" enable-background="new 0 0 130 110" xml:space="preserve">
<g id="Nieuw_symbool">
</g>
<g id="Nieuw_symbool_1_">
</g>
<g>
	<linearGradient id="SVGID_1_" gradientUnits="userSpaceOnUse" x1="67.4072" y1="48.131" x2="112.2028" y2="48.131">
		<stop  offset="0" style="stop-color:#F9F6E7"/>
		<stop  offset="1" style="stop-color:#B19C92"/>
	</linearGradient>
	<path fill="url(#SVGID_1_)" d="M112.03,41.723c0.827-3.833-1.315-7.849-6.432-10.804c-8.775-5.067-22.958-5.092-31.679-0.057
		c-4.378,2.528-6.545,5.85-6.509,9.173h-0.002v16.192h0.002c0.036,3.296,2.239,6.594,6.609,9.116
		c8.775,5.066,22.958,5.092,31.679,0.057c5.048-2.914,7.153-6.886,6.333-10.697V41.723z"/>
	<path fill="#F9F6E7" d="M105.694,49.209c-8.721,5.035-22.904,5.009-31.679-0.057s-8.82-13.255-0.099-18.29
		s22.904-5.009,31.679,0.057S114.415,44.174,105.694,49.209z"/>
	<linearGradient id="SVGID_2_" gradientUnits="userSpaceOnUse" x1="103.0758" y1="59.2347" x2="129.0403" y2="59.2347">
		<stop  offset="0" style="stop-color:#F9F6E7"/>
		<stop  offset="1" style="stop-color:#B19C92"/>
	</linearGradient>
	<path fill="url(#SVGID_2_)" d="M128.94,54.744c0.48-2.222-0.762-4.55-3.728-6.262c-5.086-2.937-13.307-2.952-18.362-0.033
		c-2.538,1.465-3.794,3.391-3.773,5.317h-0.001v10.938l0.001-1.552c0.021,1.911,1.298,5.374,3.831,6.836
		c5.086,2.937,13.307,2.951,18.362,0.033c2.926-1.689,3.671-3.975,3.671-6.2V54.744z"/>
	<path fill="#F9F6E7" d="M104.252,48.376c-7.929,4.578-20.825,4.555-28.805-0.052s-8.019-12.052-0.09-16.63
		s20.825-4.555,28.805,0.052S112.182,43.798,104.252,48.376z"/>
	<g>
		<linearGradient id="SVGID_3_" gradientUnits="userSpaceOnUse" x1="0.9581" y1="63.5716" x2="34.7415" y2="63.5716">
			<stop  offset="0" style="stop-color:#F9F6E7"/>
			<stop  offset="1" style="stop-color:#B19C92"/>
		</linearGradient>
		<path fill="url(#SVGID_3_)" d="M34.611,62.716c0.624-2.891-0.992-5.92-4.851-8.148c-6.618-3.821-17.315-3.84-23.891-0.043
			c-3.302,1.906-4.936,4.412-4.909,6.918H0.958V65.7H0.96c0.027,2.486,1.688,4.973,4.984,6.875
			c6.618,3.821,17.315,3.84,23.891,0.043c3.807-2.198,5.394-5.193,4.776-8.067V62.716z"/>
		<path fill="#F9F6E7" d="M29.835,68.361c-6.577,3.797-17.273,3.778-23.891-0.043c-6.618-3.821-6.652-9.997-0.075-13.794
			c6.577-3.797,17.273-3.778,23.891,0.043S36.412,64.564,29.835,68.361z"/>
		<linearGradient id="SVGID_4_" gradientUnits="userSpaceOnUse" x1="2.2468" y1="50.3544" x2="33.457" y2="50.3544">
			<stop  offset="0" style="stop-color:#F9F6E7"/>
			<stop  offset="1" style="stop-color:#B19C92"/>
		</linearGradient>
		<path fill="url(#SVGID_4_)" d="M33.457,61.443l-0.002-0.014c-0.006-0.448-0.071-0.897-0.192-1.341l-3.268-22.769h-0.001
			c0.003-1.804-1.19-3.612-3.582-4.993c-4.757-2.747-12.446-2.761-17.174-0.031c-2.373,1.37-3.548,3.172-3.528,4.973L2.471,59.875
			c-0.152,0.516-0.229,1.038-0.224,1.561l-0.001,0.007h0.001c0.025,2.296,1.56,4.593,4.604,6.351
			c6.113,3.53,15.994,3.547,22.069,0.04c3.05-1.761,4.56-4.075,4.535-6.391H33.457z"/>
		<linearGradient id="SVGID_5_" gradientUnits="userSpaceOnUse" x1="5.7079" y1="31.3443" x2="29.9947" y2="31.3443">
			<stop  offset="0" style="stop-color:#F9F6E7"/>
			<stop  offset="1" style="stop-color:#B19C92"/>
		</linearGradient>
		<path fill="url(#SVGID_5_)" d="M29.994,37.268L29.994,37.268L29.625,24.55h-0.001c-0.017-1.565-2.201-3.13-4.275-4.328
			c-4.166-2.406-10.9-2.418-15.041-0.027c-2.079,1.2-4.245,2.778-4.228,4.355H6.078L5.73,36.959
			c-0.006,0.099-0.022,0.197-0.021,0.296l-0.001,0.012H5.71c0.019,1.787,1.213,3.575,3.582,4.942
			c4.757,2.747,12.446,2.761,17.174,0.031C28.839,40.87,30.013,39.069,29.994,37.268z"/>
		<path fill="#F9F6E7" d="M26.202,29.371c-4.583,2.646-12.037,2.633-16.649-0.03c-4.612-2.663-4.635-6.966-0.052-9.612
			s12.037-2.633,16.649,0.03S30.785,26.725,26.202,29.371z"/>
		
			<linearGradient id="SVGID_6_" gradientUnits="userSpaceOnUse" x1="663.9033" y1="89.3725" x2="680.7977" y2="89.3725" gradientTransform="matrix(0.866 0.5 -1 0.5774 -475.0482 -363.2246)">
			<stop  offset="0" style="stop-color:#E5DBD1"/>
			<stop  offset="1" style="stop-color:#656458"/>
		</linearGradient>
		<path fill="url(#SVGID_6_)" d="M25.167,28.773c-4.015,2.318-10.545,2.306-14.585-0.026s-4.061-6.103-0.046-8.421
			s10.545-2.306,14.585,0.026S29.182,26.455,25.167,28.773z"/>
	</g>
	<g>
		<linearGradient id="SVGID_7_" gradientUnits="userSpaceOnUse" x1="31.0573" y1="47.2244" x2="64.8406" y2="47.2244">
			<stop  offset="0" style="stop-color:#F9F6E7"/>
			<stop  offset="1" style="stop-color:#B19C92"/>
		</linearGradient>
		<path fill="url(#SVGID_7_)" d="M64.71,46.368c0.624-2.891-0.992-5.92-4.851-8.148c-6.618-3.821-17.315-3.84-23.891-0.043
			c-3.302,1.906-4.936,4.412-4.909,6.918h-0.002v4.257h0.002c0.027,2.486,1.688,4.973,4.984,6.875
			c6.618,3.821,17.315,3.84,23.891,0.043c3.807-2.198,5.394-5.193,4.776-8.067V46.368z"/>
		<path fill="#F9F6E7" d="M59.934,52.014c-6.577,3.797-17.273,3.778-23.891-0.043s-6.652-9.997-0.075-13.794
			c6.577-3.797,17.273-3.778,23.891,0.043S66.511,48.217,59.934,52.014z"/>
		<linearGradient id="SVGID_8_" gradientUnits="userSpaceOnUse" x1="32.3459" y1="34.0072" x2="63.5561" y2="34.0072">
			<stop  offset="0" style="stop-color:#F9F6E7"/>
			<stop  offset="1" style="stop-color:#B19C92"/>
		</linearGradient>
		<path fill="url(#SVGID_8_)" d="M63.556,45.096l-0.002-0.014c-0.006-0.448-0.071-0.897-0.192-1.341l-3.268-22.769h-0.001
			c0.003-1.804-1.19-3.612-3.582-4.993c-4.757-2.747-12.446-2.761-17.174-0.031c-2.373,1.37-3.548,3.172-3.528,4.973l-3.238,22.607
			c-0.152,0.516-0.229,1.038-0.224,1.561l-0.001,0.007h0.001c0.025,2.296,1.56,4.593,4.604,6.351
			c6.113,3.53,15.994,3.547,22.069,0.04c3.05-1.761,4.56-4.075,4.535-6.391H63.556z"/>
		<linearGradient id="SVGID_9_" gradientUnits="userSpaceOnUse" x1="35.807" y1="14.997" x2="60.0939" y2="14.997">
			<stop  offset="0" style="stop-color:#F9F6E7"/>
			<stop  offset="1" style="stop-color:#B19C92"/>
		</linearGradient>
		<path fill="url(#SVGID_9_)" d="M60.093,20.92L60.093,20.92L59.724,8.203h-0.001c-0.017-1.565-2.201-3.13-4.275-4.328
			c-4.166-2.406-10.9-2.418-15.041-0.027c-2.079,1.2-4.245,2.778-4.228,4.355h-0.002l-0.348,12.409
			c-0.006,0.099-0.022,0.197-0.021,0.296l-0.001,0.012h0.002c0.019,1.787,1.213,3.575,3.582,4.942
			c4.757,2.747,12.446,2.761,17.174,0.031C58.938,24.523,60.112,22.722,60.093,20.92z"/>
		<path fill="#F9F6E7" d="M56.301,13.024c-4.583,2.646-12.037,2.633-16.649-0.03s-4.635-6.966-0.052-9.612s12.037-2.633,16.649,0.03
			S60.884,10.378,56.301,13.024z"/>
		
			<linearGradient id="SVGID_10_" gradientUnits="userSpaceOnUse" x1="664.9338" y1="60.1658" x2="681.8282" y2="60.1658" gradientTransform="matrix(0.866 0.5 -1 0.5774 -475.0482 -363.2246)">
			<stop  offset="0" style="stop-color:#E5DBD1"/>
			<stop  offset="1" style="stop-color:#656458"/>
		</linearGradient>
		<path fill="url(#SVGID_10_)" d="M55.266,12.426c-4.015,2.318-10.545,2.306-14.585-0.026s-4.061-6.103-0.046-8.421
			s10.545-2.306,14.585,0.026S59.281,10.108,55.266,12.426z"/>
	</g>
	<polygon fill="#F9F6E7" points="97.011,74.591 46.487,45.316 64.55,34.546 115.074,63.821 	"/>
	<polygon fill="#E7D7C7" points="66.588,108.594 16.064,79.32 16.064,62.881 66.588,92.155 	"/>
	<polygon fill="#F9F6E7" points="66.588,92.155 16.064,62.881 21.656,59.653 72.179,88.927 	"/>
	<polygon fill="#E7D7C7" points="72.179,88.927 21.595,59.758 21.579,52.295 72.163,81.464 	"/>
	<polygon fill="#F9F6E7" points="72.163,81.464 21.64,52.189 46.471,37.853 96.995,67.127 	"/>
	<polygon fill="#FFDE93" points="82.656,66.871 36.104,40.112 25.763,52.295 72.315,79.054 	"/>
	<polygon fill="#DDB272" points="92.997,66.866 46.445,40.107 36.104,40.112 82.656,66.871 	"/>
	<polygon fill="#BFABA7" points="92.997,66.866 72.315,79.054 82.656,66.871 	"/>
	<polygon fill="#BFABA7" points="97.003,74.595 96.995,67.127 72.163,81.464 72.179,88.927 72.179,88.927 66.588,92.156 
		66.588,108.594 115.074,80.26 115.074,63.821 	"/>
	<polygon fill="#DBD7C6" points="52.932,41.587 57.108,39.192 107.421,68.384 97.011,74.591 97.011,74.591 97.002,67.123 	"/>
	<linearGradient id="SVGID_11_" gradientUnits="userSpaceOnUse" x1="69.4315" y1="38.3119" x2="110.173" y2="38.3119">
		<stop  offset="0" style="stop-color:#FFDE93"/>
		<stop  offset="0.9948" style="stop-color:#DDB272"/>
	</linearGradient>
	<path fill="url(#SVGID_11_)" d="M89.802,25.289c-11.25,0-20.371,6.396-20.371,14.287h0.007c0.033,2.997,2.036,5.995,6.009,8.289
		c7.979,4.607,20.875,4.63,28.805,0.052c3.71-2.142,5.675-4.911,5.898-7.724c0.012-0.197,0.021-0.395,0.021-0.594
		c0-0.007,0.001-0.015,0.001-0.022C110.173,31.685,101.053,25.289,89.802,25.289z"/>
	<path fill="#F9F6E7" d="M125.268,59.083c-5.055,2.918-13.275,2.903-18.362-0.033s-5.112-7.683-0.057-10.601
		c5.055-2.918,13.275-2.903,18.362,0.033S130.322,56.165,125.268,59.083z"/>
	<path fill="#F9F6E7" d="M124.432,58.601c-4.596,2.653-12.071,2.64-16.696-0.03c-4.625-2.67-4.648-6.986-0.052-9.639
		c4.596-2.653,12.071-2.64,16.696,0.03C129.005,51.631,129.028,55.947,124.432,58.601z"/>
	<path fill="#F9F6E7" d="M93.985,52.577c0.17,0.043,12.227-4.09,12.227-4.09l-1.406,1.874l-0.724,4.207l1.661,3.248l3.693,1.568
		l-2.755-0.333l-1.321,1.53L93.985,52.577z"/>
	<linearGradient id="SVGID_12_" gradientUnits="userSpaceOnUse" x1="104.2491" y1="52.7671" x2="127.8638" y2="52.7671">
		<stop  offset="0" style="stop-color:#FFDE93"/>
		<stop  offset="0.9948" style="stop-color:#DDB272"/>
	</linearGradient>
	<path fill="url(#SVGID_12_)" d="M116.056,45.219c-6.521,0-11.807,3.707-11.807,8.281h0.004c0.019,1.737,1.18,3.475,3.483,4.804
		c4.625,2.67,12.1,2.684,16.696,0.03c2.15-1.242,3.289-2.847,3.419-4.477c0.007-0.114,0.012-0.229,0.012-0.345
		c0-0.004,0-0.009,0-0.013C127.864,48.926,122.577,45.219,116.056,45.219z"/>
</g>
</svg>
